<!-- <svg xmlns="http://www.w3.org/2000/svg" xmlns:xlink="http://www.w3.org/1999/xlink" xml:space="preserve" overflow="hidden"><defs><clipPath id="clip0"><rect x="91" y="63" width="388" height="198"/></clipPath></defs><g clip-path="url(#clip0)" transform="translate(-91 -63)"><path d="M93.5 162C93.5 108.705 179.237 65.5002 285 65.5002 390.762 65.5002 476.5 108.705 476.5 162 476.5 215.296 390.762 258.5 285 258.5 179.237 258.5 93.5 215.296 93.5 162Z" stroke="#2F528F" stroke-width="4.58333" stroke-miterlimit="8" fill="#4472C4" fill-rule="evenodd"> -->
<!-- <svg version="1.1" id="Layer_1" xmlns="http://www.w3.org/2000/svg" xmlns:xlink="http://www.w3.org/1999/xlink" x="0px" y="0px" viewBox="0 0 100 58" style="enable-background:new 0 0 100 58;" xml:space="preserve"> -->
    <!-- <path d="M150 0 L75 200 L225 200 Z" /> -->
<!-- <path className="st0" d="M94.45,47.18c-42.62,5.57-73.04,12.26-73.49-15.2c0,0,0.93-10.64,13.98-11.31c0,0,0.44-9.45,10.41-10.52  c5.36-0.58,11.45,4.94,12.11,10.75c0,0,13.19-2.44,13.76,10.42c0.2,4.48-0.81,12.1-13.53,11.77c0,0-7.36-1-8.36-12.38  c-2.07,22.03,29.78,20.75,30.24,0.74c0.2-8.65-5.34-17.55-17.82-15.88C54.91-1.64,36.7-0.65,29.92,15.31  c-9.69,0-17.1,7.46-16.99,17.2C13.3,63.86,56.93,54.41,94.45,47.18z" fill="yellow"/> -->
<!-- </svg> -->

<svg
    width="100"
    height="60"
    xmlns="http://www.w3.org/2000/svg"
    xmlns:xlink="http://www.w3.org/1999/xlink"
    xml:space="preserve"
    overflow="hidden">


        <path d="M94.45,47.18c-42.62,5.57-73.04,12.26-73.49-15.2c0,0,0.93-10.64,13.98-11.31c0,0,0.44-9.45,10.41-10.52  c5.36-0.58,11.45,4.94,12.11,10.75c0,0,13.19-2.44,13.76,10.42c0.2,4.48-0.81,12.1-13.53,11.77c0,0-7.36-1-8.36-12.38  c-2.07,22.03,29.78,20.75,30.24,0.74c0.2-8.65-5.34-17.55-17.82-15.88C54.91-1.64,36.7-0.65,29.92,15.31  c-9.69,0-17.1,7.46-16.99,17.2C13.3,63.86,56.93,54.41,94.45,47.18z"
         fill="#0d6efd" />

</svg>